# xmcd CD database file
#
# Track frame offsets:
#	150
#	14755
#	30559
#	51934
#	73401
#	90022
#	103457
#	120659
#	142751
#	160375
#	173383
#	186094
#	199965
#	222884
#	238733
#	256629
#	274498
#	285087
#
# Disc length: 4073 seconds
#
# Revision: 4
# Processed by: cddbd v1.5.2PL0 Copyright (c) Steve Scherf et al.
# Submitted via: CDex 1.70beta2
#
DISCID=010fe712
DTITLE=Birdland Dixie Band - A  Night At Birdland
DYEAR=1900
DGENRE=Jazz
TTITLE0=Oh, Lady be good
TTITLE1=It´s Only a Papermoon
TTITLE2=Georgia on my mind
TTITLE3=Swanee River
TTITLE4=Help me make it through the night
TTITLE5=Sheik of Araby
TTITLE6=The Citron
TTITLE7=C´ est si bon
TTITLE8=Summer set
TTITLE9=My blue Haeven
TTITLE10=Use three
TTITLE11=Sweet Sue
TTITLE12=Do you know, what I means, to miss New Orleans
TTITLE13=C - Jam Blues
TTITLE14=Bel Ami
TTITLE15=Jada
TTITLE16=Midnight in Moscow
TTITLE17=What a wonderful world
EXTD=
EXTT0=
EXTT1=
EXTT2=
EXTT3=
EXTT4=
EXTT5=
EXTT6=
EXTT7=
EXTT8=
EXTT9=
EXTT10=
EXTT11=
EXTT12=
EXTT13=
EXTT14=
EXTT15=
EXTT16=
EXTT17=
PLAYORDER=
